<?xml version="1.0" encoding="UTF-8"?>
<svg id="Layer_1" xmlns="http://www.w3.org/2000/svg" version="1.1" viewBox="0 0 144 144">
  <!-- Generator: Adobe Illustrator 29.0.0, SVG Export Plug-In . SVG Version: 2.1.0 Build 186)  -->
  <defs>
    <style>
      .st0 {
        fill: #fff;
      }
    </style>
  </defs>
  <path class="st0" d="M132.53,10.31c-2.42,0-4.51,1.52-5.38,3.71l-14.73-4c-.54-.15-1.11-.03-1.55.3s-.72.87-.72,1.43v8.55c-6.39-4.63-13.12-8.07-20.02-10.22-6.04-1.88-11.98-.99-17.18,2.63l-.63.42-.63-.42c-5.2-3.62-11.15-4.54-17.18-2.63-2.51.78-4.99,1.73-7.44,2.87l-6.72-2.93-3.88-8.93c-.27-.66-.93-1.08-1.64-1.08s-1.37.42-1.64,1.08l-3.88,8.93-8.93,3.88c-.66.3-1.08.93-1.08,1.64s.42,1.37,1.08,1.64l8.93,3.88,1.08,2.45c-9.2,7.59-17.42,17.54-24.44,29.61-.33.57-.33,1.26,0,1.79,8.28,14.22,18.14,25.46,29.31,33.38,11.65,8.25,24.14,12.43,37.05,12.43s20.14-2.63,29.64-7.8c7.17-3.91,13.98-9.23,20.29-15.84l-3.79,14.55c-.03.15-.06.3-.06.45v45.99c0,3.26,2.6,5.92,5.83,5.92s5.83-2.66,5.83-5.92v-44.67l8.25-31.61c.03-.15.06-.3.06-.45V16.23c0-3.26-2.6-5.92-5.8-5.92h0ZM109.07,70.67c-6.39-6.51-15.18-10.22-24.26-10.22h-24.95c-9.08,0-17.87,3.71-24.26,10.22-9.5-4.06-18.17-9.65-25.52-16.64,5.5-5.2,11.71-9.65,18.47-13.27v2.54c0,2.54,2.06,4.6,4.6,4.6h13.54c1.14,0,2.18-.42,2.99-1.11.87.69,1.97,1.11,3.17,1.11h16.2c1.26,0,2.42-.48,3.32-1.23.9.78,2.06,1.23,3.32,1.23h16.2c1.2,0,2.3-.42,3.17-1.11.81.69,1.85,1.11,2.99,1.11h12.16v14.49c0,.57.27,1.08.72,1.43.33.24.69.36,1.08.36s.33,0,.48-.06l14.25-3.88-.12.51c-5.38,3.94-11.24,7.26-17.45,9.92h-.06ZM105.46,72.13c-10.43,3.91-21.69,6.01-33.11,6.01s-22.68-2.09-33.11-6.01c5.62-5.17,13-8.1,20.62-8.1h24.95c7.65,0,15.03,2.93,20.62,8.1h.03ZM126.73,47.84h-13v-8.99h13v8.99ZM113.73,51.43h13v5.08l-13,3.53v-8.61ZM126.73,35.26h-13v-8.99h13v8.99ZM110.15,44.31h-12.16c-.57,0-1.02-.48-1.02-1.02v-10.16c4.51,1.23,8.9,2.78,13.18,4.69v6.51h0v-.03ZM93.38,42.76c0,.84-.69,1.52-1.52,1.52h-16.2c-.84,0-1.52-.69-1.52-1.52v-12.85c6.57.12,13,.9,19.24,2.33v10.55-.03ZM70.52,42.76c0,.84-.69,1.52-1.52,1.52h-16.2c-.84,0-1.52-.69-1.52-1.52v-10.49c6.25-1.43,12.73-2.24,19.24-2.36v12.85ZM47.72,43.3h0c0,.57-.48,1.02-1.02,1.02h-13.54c-.54,0-1.02-.48-1.02-1.02v-4.33c4.96-2.36,10.19-4.3,15.57-5.77v9.59c0,.18,0,.36.03.51h-.03ZM126.73,17.6v5.08h-13v-8.61l13,3.53ZM25.58,15.51l5.8-2.54c.42-.18.75-.51.93-.93l2.54-5.8,2.54,5.8c.18.42.51.75.93.93l5.8,2.54-5.8,2.54c-.42.18-.75.51-.93.93l-2.54,5.8-2.54-5.8c-.18-.42-.51-.75-.93-.93,0,0-5.8-2.54-5.8-2.54ZM31.86,26.92l1.34,3.05c.27.66.93,1.08,1.64,1.08s1.37-.42,1.64-1.08l3.88-8.93,8.93-3.88c.66-.27,1.08-.93,1.08-1.64s0-.09,0-.12c1.73-.72,3.5-1.37,5.26-1.91,4.93-1.55,9.8-.81,14.04,2.15l1.64,1.14c.63.42,1.43.42,2.06,0l1.64-1.14c4.24-2.96,9.11-3.71,14.04-2.15,7.32,2.27,14.4,6.1,21.1,11.3v9.11c-11.86-5.02-24.56-7.59-37.8-7.59s-24.86,2.33-36.34,6.96c-7.32,2.96-14.1,6.75-20.26,11.3,4.93-6.84,10.31-12.76,16.14-17.66l-.06.03ZM72.32,97.15c-20.83,0-40.97-12.13-56.6-33.68,6.13,4.54,12.85,8.31,20.14,11.24,11.5,4.66,23.76,7.02,36.46,7.02,18.97,0,37.53-5.53,52.8-15.63l-.9,3.38c-15.06,18.11-33.02,27.67-51.93,27.67h.03ZM134.74,61.11l-8.25,31.61c-.03.15-.06.3-.06.45v44.91c0,1.28-.99,2.33-2.24,2.33s-2.24-1.05-2.24-2.33v-45.75l8.25-31.61c.03-.15.06-.3.06-.45V16.23c0-1.28.99-2.33,2.24-2.33s2.24,1.05,2.24,2.33v44.88Z"/>
</svg>