<?xml version="1.0" encoding="UTF-8"?>
<svg id="Layer_1" xmlns="http://www.w3.org/2000/svg" version="1.1" viewBox="0 0 144 144">
  <!-- Generator: Adobe Illustrator 29.0.0, SVG Export Plug-In . SVG Version: 2.1.0 Build 186)  -->
  <defs>
    <style>
      .st0 {
        fill: #fff;
      }
    </style>
  </defs>
  <path class="st0" d="M127.68,32.79c0-.48-.22-.96-.55-1.29L96.18.55c-.33-.37-.81-.55-1.29-.55H29.94c-7.53.04-13.62,6.13-13.62,13.62v116.75c0,7.53,6.09,13.62,13.59,13.62h84.11c7.53-.04,13.62-6.13,13.62-13.62v-29.05c.02-.12.04-.25.04-.38V32.79ZM121.33,30.94h-14.7c-5.5-.04-9.93-4.47-9.93-9.93V6.31l24.63,24.63ZM29.94,3.69h63.06v17.32c0,7.53,6.09,13.62,13.59,13.62h17.35v64.43H20.05V13.62c0-5.5,4.43-9.93,9.9-9.93ZM123.99,130.38c-.04,5.5-4.47,9.93-9.93,9.93H29.94c-5.5,0-9.93-4.47-9.93-9.93v-27.62h103.98v27.62Z"/>
  <path class="st0" d="M107.26,79.83h-36.63c-1.03,0-1.85.81-1.85,1.85s.81,1.85,1.85,1.85h36.63c1.03,0,1.85-.81,1.85-1.85s-.81-1.85-1.85-1.85Z"/>
  <path class="st0" d="M59.15,79.83h-22.49c-1.03,0-1.85.81-1.85,1.85s.81,1.85,1.85,1.85h22.49c1.03,0,1.85-.81,1.85-1.85s-.81-1.85-1.85-1.85Z"/>
  <path class="st0" d="M107.26,64.69h-10.93c-1.03,0-1.85.81-1.85,1.85s.81,1.85,1.85,1.85h10.93c1.03,0,1.85-.81,1.85-1.85s-.81-1.85-1.85-1.85Z"/>
  <path class="st0" d="M36.63,68.38h48.18c1.03,0,1.85-.81,1.85-1.85s-.81-1.85-1.85-1.85h-48.18c-1.03,0-1.85.81-1.85,1.85s.81,1.85,1.85,1.85Z"/>
  <path class="st0" d="M57.27,51.4c0,1.03.81,1.85,1.85,1.85h48.15c1.03,0,1.85-.81,1.85-1.85s-.81-1.85-1.85-1.85h-48.15c-1.03,0-1.85.81-1.85,1.85Z"/>
  <path class="st0" d="M36.66,49.55c-1.03,0-1.85.81-1.85,1.85s.81,1.85,1.85,1.85h10.93c1.03,0,1.85-.81,1.85-1.85s-.81-1.85-1.85-1.85h-10.93Z"/>
  <path class="st0" d="M36.63,38.1h28.73c1.03,0,1.85-.81,1.85-1.85s-.81-1.85-1.85-1.85h-28.73c-1.03,0-1.85.81-1.85,1.85s.81,1.85,1.85,1.85Z"/>
  <path class="st0" d="M75.03,36.26c0,1.03.81,1.85,1.85,1.85h8.82c1.03,0,1.85-.81,1.85-1.85s-.81-1.85-1.85-1.85h-8.82c-1.03,0-1.85.81-1.85,1.85Z"/>
  <path class="st0" d="M36.66,22.97h5.17c1.03,0,1.85-.81,1.85-1.85s-.81-1.85-1.85-1.85h-5.17c-1.03,0-1.85.81-1.85,1.85s.81,1.85,1.85,1.85Z"/>
  <path class="st0" d="M53.39,22.97h27.36c1.03,0,1.85-.81,1.85-1.85s-.81-1.85-1.85-1.85h-27.36c-1.03,0-1.85.81-1.85,1.85s.81,1.85,1.85,1.85Z"/>
  <path class="st0" d="M61.55,135.4c2.1,0,3.66-.59,4.76-1.77,1.07-1.14,1.62-2.84,1.62-5.06.04-1.55-.3-3.06-1-4.43-.66-1.26-1.88-2.66-3.66-4.21-1.11-.89-2.07-1.92-2.88-3.06-.52-.81-.78-1.77-.78-2.73,0-1.74.7-2.58,2.1-2.58.59-.04,1.18.18,1.59.63.37.44.55,1.11.55,2.03v.81c.04.3.26.55.59.55h2.84c.3,0,.55-.22.55-.55v-.55c0-2.18-.52-3.84-1.55-5.02-1.03-1.14-2.55-1.74-4.58-1.74s-3.62.55-4.69,1.74c-1.07,1.18-1.62,2.81-1.62,4.95-.04,1.48.33,2.92,1.03,4.21.7,1.26,1.92,2.62,3.66,4.17,1.37,1.22,2.33,2.25,2.84,3.1.52.92.78,1.96.78,2.99,0,.96-.18,1.66-.55,2.07-.41.44-1,.66-1.62.63-1.44,0-2.18-.89-2.18-2.62v-1.29c-.04-.3-.26-.55-.59-.55h-2.84c-.33,0-.59.22-.59.55v.96c0,2.18.52,3.84,1.55,5.02,1.07,1.18,2.62,1.77,4.65,1.77Z"/>
  <path class="st0" d="M69.82,111.91h3.29c.3,0,.55.22.55.55v21.93c0,.3.22.55.55.55h3.1c.3,0,.55-.22.55-.55v-21.93c0-.3.22-.55.55-.55h3.29c.3,0,.55-.22.55-.55v-2.7c0-.3-.22-.55-.55-.55h-11.93c-.3,0-.55.22-.55.55v2.7c.04.3.26.55.59.55Z"/>
  <path class="st0" d="M84.92,134.95h3.1c.3,0,.55-.22.55-.55v-25.77c0-.3-.22-.55-.55-.55h-3.1c-.3,0-.55.22-.55.55v25.77c0,.3.22.55.55.55Z"/>
</svg>