<?xml version="1.0" encoding="UTF-8"?>
<svg id="Layer_1" xmlns="http://www.w3.org/2000/svg" version="1.1" viewBox="0 0 144 144">
  <!-- Generator: Adobe Illustrator 29.0.0, SVG Export Plug-In . SVG Version: 2.1.0 Build 186)  -->
  <defs>
    <style>
      .st0 {
        fill: #fff;
      }
    </style>
  </defs>
  <path class="st0" d="M136.87,46.8c-9.53-9.51-25.02-9.51-34.53,0l-2.6,2.59-2.58-2.58c-2.28-2.28-4.91-4.01-7.71-5.2v-13.64c0-4.58-3.73-8.31-8.31-8.31h-9.16c-.95-3.81-4.39-6.64-8.49-6.64h-5.68c-.95-3.81-4.4-6.64-8.5-6.64h-9.15c-4.1,0-7.55,2.83-8.5,6.64h-5.68c-4.11,0-7.56,2.84-8.5,6.66h-9.17c-4.58,0-8.31,3.73-8.31,8.31v45.89c0,1.16.94,2.11,2.11,2.11s2.11-.94,2.11-2.11V27.99c0-2.26,1.84-4.09,4.09-4.09h9.18c.95,3.8,4.4,6.62,8.49,6.62h13.96c1.16,0,2.11-.94,2.11-2.11s-.94-2.11-2.11-2.11h-13.96c-2.5,0-4.53-2.03-4.53-4.53s2.03-4.53,4.53-4.53h7.53c1.16,0,2.11-.94,2.11-2.11,0-2.5,2.03-4.53,4.53-4.53h9.15c2.5,0,4.53,2.03,4.53,4.53,0,1.16.94,2.11,2.11,2.11h7.53c2.43,0,4.41,1.92,4.52,4.33,0,.07-.01.14-.01.21s0,.14.01.21c-.11,2.4-2.09,4.33-4.52,4.33h-13.96c-1.16,0-2.11.94-2.11,2.11s.94,2.11,2.11,2.11h13.96c4.1,0,7.55-2.83,8.49-6.64h9.16c2.26,0,4.09,1.84,4.09,4.09v12.29c-7.89-1.76-16.49.42-22.6,6.55-9.5,9.52-9.5,25.01,0,34.53l22.6,22.6v25.38c0,2.26-1.84,4.09-4.09,4.09H8.31c-2.26,0-4.09-1.84-4.09-4.09v-45.89c0-1.16-.94-2.11-2.11-2.11s-2.11.94-2.11,2.11v45.89c0,4.58,3.73,8.31,8.31,8.31h72.82c4.58,0,8.31-3.73,8.31-8.31v-21.17l8.8,8.8c.41.41.95.62,1.49.62s1.08-.21,1.49-.62l19.95-19.93c.82-.82.82-2.16,0-2.98s-2.16-.82-2.98,0l-18.46,18.44-10.91-10.91h0s-23.22-23.22-23.22-23.22c-7.86-7.88-7.86-20.69,0-28.57,5.61-5.62,13.75-7.23,20.82-4.82.13.06.27.11.41.15,2.68.98,5.19,2.53,7.34,4.67l4.07,4.07c.82.82,2.15.82,2.98,0l4.1-4.07c7.87-7.87,20.68-7.87,28.57,0,7.87,7.87,7.87,20.68,0,28.57l-8.92,8.92c-.82.82-.82,2.16,0,2.98.82.82,2.16.82,2.98,0l8.92-8.92c9.51-9.53,9.51-25.02,0-34.53Z"/>
  <path class="st0" d="M12.95,59.56h14.26c1.16,0,2.11-.94,2.11-2.11v-14.26c0-1.16-.94-2.11-2.11-2.11h-14.26c-1.16,0-2.11.94-2.11,2.11v14.26c0,1.16.94,2.11,2.11,2.11ZM15.06,45.3h10.04v10.04h-10.04v-10.04Z"/>
  <path class="st0" d="M10.84,85.65c0,1.16.94,2.11,2.11,2.11h14.26c1.16,0,2.11-.94,2.11-2.11v-14.26c0-1.16-.94-2.11-2.11-2.11h-14.26c-1.16,0-2.11.94-2.11,2.11v14.26ZM15.06,73.5h10.04v10.04h-10.04v-10.04Z"/>
  <path class="st0" d="M10.84,113.84c0,1.16.94,2.11,2.11,2.11h14.26c1.16,0,2.11-.94,2.11-2.11v-14.26c0-1.16-.94-2.11-2.11-2.11h-14.26c-1.16,0-2.11.94-2.11,2.11v14.26ZM15.06,101.69h10.04v10.04h-10.04v-10.04Z"/>
  <path class="st0" d="M36.51,57.07h13.65c1.16,0,2.11-.94,2.11-2.11s-.94-2.11-2.11-2.11h-13.65c-1.16,0-2.11.94-2.11,2.11s.94,2.11,2.11,2.11Z"/>
  <path class="st0" d="M36.51,47.77h18.28c1.16,0,2.11-.94,2.11-2.11s-.94-2.11-2.11-2.11h-18.28c-1.16,0-2.11.94-2.11,2.11s.94,2.11,2.11,2.11Z"/>
  <path class="st0" d="M36.51,75.99h13.65c1.16,0,2.11-.94,2.11-2.11s-.94-2.11-2.11-2.11h-13.65c-1.16,0-2.11.94-2.11,2.11s.94,2.11,2.11,2.11Z"/>
  <path class="st0" d="M36.51,85.27h13.65c1.16,0,2.11-.94,2.11-2.11s-.94-2.11-2.11-2.11h-13.65c-1.16,0-2.11.94-2.11,2.11s.94,2.11,2.11,2.11Z"/>
  <path class="st0" d="M36.51,104.18h21.39c1.16,0,2.11-.94,2.11-2.11s-.94-2.11-2.11-2.11h-21.39c-1.16,0-2.11.94-2.11,2.11s.94,2.11,2.11,2.11Z"/>
  <path class="st0" d="M36.51,113.48h13.65c1.16,0,2.11-.94,2.11-2.11s-.94-2.11-2.11-2.11h-13.65c-1.16,0-2.11.94-2.11,2.11s.94,2.11,2.11,2.11Z"/>
  <path class="st0" d="M127.57,75.65c0-1.16-.94-2.11-2.11-2.11h-16.22c-.87,0-1.66.54-1.97,1.35l-3.03,7.91-7.41-21.37c-.28-.81-1.03-1.37-1.88-1.42-.86-.05-1.66.44-2.02,1.21l-5.74,12.3h-13.19c-1.16,0-2.11.94-2.11,2.11s.94,2.11,2.11,2.11h14.53c.82,0,1.56-.47,1.91-1.22l4.11-8.8,7.6,21.91c.29.84,1.07,1.4,1.96,1.42.01,0,.02,0,.03,0,.87,0,1.66-.54,1.97-1.35l4.58-11.95h14.77c1.16,0,2.11-.94,2.11-2.11Z"/>
</svg>